<svg xmlns="http://www.w3.org/2000/svg" height="20px" width="20px" viewBox="0 -960 960 960">
	<path fill="#575E75" d="M 440 -40 v -167 l -44 43 l -56 -56 l 140 -140 l 140 140 l -56 56 l -44 -43 v 167 h -80 Z M 220 -340 l -56 -56 l 43 -44 H 40 v -80 h 167 l -43 -44 l 56 -56 l 140 140 l -140 140 Z m 520 0 L 600 -480 l 140 -140 l 56 56 l -43 44 h 167 v 80 H 753 l 43 44 l -56 56 Z m -260 -260 L 340 -740 l 56 -56 l 44 43 v -167 h 80 v 167 l 44 -43 l 56 56 l -140 140 Z"/>
	<path fill="#855CD6" d="M 480 -420 q -25 0 -42.5 -17.5 T 420 -480 q 0 -25 17.5 -42.5 T 480 -540 q 25 0 42.5 17.5 T 540 -480 q 0 25 -17.5 42.5 T 480 -420 Z"/>
</svg>