<svg xmlns="http://www.w3.org/2000/svg" height="20px" width="20px" viewBox="0 -960 960 960">
	<path fill="#575E75" d="M 520 -207 v 127 q 0 17 -11.5 28.5 T 480 -40 q -17 0 -28.5 -11.5 T 440 -80 v -127 l -16 16 q -11 11 -27.5 11 T 368 -192 q -11 -11 -11 -28 t 11 -28 l 84 -84 q 12 -12 28 -12 t 28 12 l 84 84 q 11 11 11.5 27.5 T 592 -192 q -11 11 -27.5 11.5 T 536 -191 l -16 -16 Z M 207 -440 H 80 q -17 0 -28.5 -11.5 T 40 -480 q 0 -17 11.5 -28.5 T 80 -520 h 127 l -16 -16 q -11 -11 -11 -27.5 t 12 -28.5 q 11 -11 28 -11 t 28 11 l 84 84 q 12 12 12 28 t -12 28 l -84 84 q -11 11 -27.5 11.5 T 192 -368 q -11 -11 -11.5 -27.5 T 191 -424 l 16 -16 Z m 546 0 l 16 16 q 11 11 11 27.5 T 768 -368 q -11 11 -28 11 t -28 -11 l -84 -84 q -12 -12 -12 -28 t 12 -28 l 84 -84 q 11 -11 27.5 -11.5 T 768 -592 q 11 11 11.5 27.5 T 769 -536 l -16 16 h 127 q 17 0 28.5 11.5 T 920 -480 q 0 17 -11.5 28.5 T 880 -440 H 753 Z m -313 -313 v -127 q 0 -17 11.5 -28.5 T 480 -920 q 17 0 28.5 11.5 T 520 -880 v 127 l 16 -16 q 11 -11 27.5 -11 t 28.5 12 q 11 11 11 28 t -11 28 l -84 84 q -12 12 -28 12 t -28 -12 l -84 -84 q -11 -11 -11.5 -27.5 T 368 -768 q 11 -11 27.5 -11.5 T 424 -769 l 16 16 Z"/>
	<path fill="#855CD6" d="M 480 -420 q -25 0 -42.5 -17.5 T 420 -480 q 0 -25 17.5 -42.5 T 480 -540 q 25 0 42.5 17.5 T 540 -480 q 0 25 -17.5 42.5 T 480 -420 Z"/>
</svg>