<?xml version="1.0" encoding="UTF-8" standalone="no"?>
<svg width="20px" height="20px" viewBox="0 0 20 20" version="1.1" xmlns="http://www.w3.org/2000/svg" xmlns:xlink="http://www.w3.org/1999/xlink">
    <!-- Generator: Sketch 48.2 (47327) - http://www.bohemiancoding.com/sketch -->
    <title>copy v2</title>
    <desc>Created with Sketch.</desc>
    <defs></defs>
    <g id="Page-1" stroke="none" stroke-width="1" fill="none" fill-rule="evenodd">
        <g id="copy-v2">
            <g id="copy" transform="translate(3.000000, 2.000000)">
                <polyline id="Path-3" stroke-opacity="0.5" stroke="#575E75" stroke-linecap="round" stroke-linejoin="round" stroke-dasharray="1,2" points="0.503173828 3 0.503173828 15.5 13 15.5"></polyline>
                <path d="M2,1.00684547 C2,0.450780073 2.45303631,0 2.99703014,0 L10,0 L10,2.34995317 C10,3.26124887 10.7336617,4 11.6500468,4 L14,4 L14,13.0046024 C14,13.5543453 13.544239,14 12.9975267,14 L3.00247329,14 C2.44882258,14 2,13.5500512 2,12.9931545 L2,1.00684547 Z" id="Rectangle-4" fill="#855CD6"></path>
                <path d="M11,0 L14,3 L11.9989566,3 C11.4472481,3 11,2.55733967 11,2.00104344 L11,0 Z" id="Rectangle-5" fill="#855CD6"></path>
                <path transform="translate(5, 6) scale(0.05)" d="M95.36,19.84c11-5.17,20.18-5.08,27.52-.1l-65,37.45a12.92,12.92,0,0,1-7.22,3c-2.42.13-3.29-.56-5.39-.95a7.22,7.22,0,0,0-5.4,1l-1.71,1.56c-1.53,1.39-3.37,2.6-3.07,5,.2,1.58,1.55,2.91,3.69,4.06A15.4,15.4,0,0,1,42.56,76,17.92,17.92,0,0,1,44,82.5c-.39,7.55-3.92,14.07-12.41,19-9.68,6-17.86,5.27-25.18.86C2,98.93,0,94.82,0,90.16,0,83,3.41,77.26,8.73,72.78A73.68,73.68,0,0,1,20.66,65.1l14-10.95.25.85L95.36,19.84Zm0,66.1c11,5.17,20.18,5.08,27.52.1L69.16,55.09,55.53,62.78,95.36,85.94ZM42.29,46.56a7.4,7.4,0,0,1-2.41-1L38.17,44c-1.53-1.39-3.37-2.6-3.07-5,.2-1.59,1.55-2.92,3.69-4.06a15.44,15.44,0,0,0,3.77-5.2A17.86,17.86,0,0,0,44,23.29c-.39-7.55-3.92-14.08-12.41-19C21.93-1.63,13.75-.95,6.43,3.46,2,6.85,0,11,0,15.63,0,22.74,3.41,28.53,8.73,33a73,73,0,0,0,11.93,7.68L34.24,51.31l.6-.35.06-.18.12.08,7.27-4.3ZM32.85,30.43c3.91-2.55,4.31-6.85,2.87-10.95C34.57,16.19,32.1,13.35,28.4,11A21.36,21.36,0,0,0,15.88,7.77c-8.44.77-10,8.29-6.35,14.86a17.07,17.07,0,0,0,7.37,6.92A24.19,24.19,0,0,0,24.44,32a12.16,12.16,0,0,0,8.41-1.56ZM55.08,53.11a3.58,3.58,0,1,1-3.57-3.58,3.57,3.57,0,0,1,3.57,3.58ZM32.85,75.36c3.91,2.55,4.31,6.84,2.87,10.94-1.15,3.3-3.62,6.13-7.32,8.53A21.44,21.44,0,0,1,15.88,98c-8.44-.78-10-8.3-6.35-14.87a17,17,0,0,1,7.37-6.91,23.94,23.94,0,0,1,7.54-2.45,12.16,12.16,0,0,1,8.41,1.57Z" id="path-1" fill="white"></path>
            </g>
        </g>
    </g>
</svg>
