<svg version="1.1" xmlns="http://www.w3.org/2000/svg" xmlns:xlink="http://www.w3.org/1999/xlink" width="27.05235" height="27.05235" viewBox="0,0,27.05235,27.05235"><g transform="translate(-226.51123,-166.51123)"><g stroke-miterlimit="10"><path d="M233.91425,193.06358c-1.05878,0 -1.91709,-0.85831 -1.91709,-1.91709v-17.23224c0,-1.05878 0.85831,-1.91709 1.91709,-1.91709h17.23224c1.05878,0 1.91709,0.85831 1.91709,1.91709v17.23224c0,1.05878 -0.85831,1.91709 -1.91709,1.91709z" fill="none" stroke-opacity="0.50196" stroke="#855cd6" stroke-width="1"/><path d="M228.51123,188.48877c-1.10457,0 -2,-0.89543 -2,-2v-17.97754c0,-1.10457 0.89543,-2 2,-2h17.97754c1.10457,0 2,0.89543 2,2v2.42855c-0.11643,0.01265 -12.49452,-0.02566 -14.5524,-0.01041c-1.58792,0.01176 -2.99995,0.76917 -3.00788,2.59318c-0.00278,0.63905 0.05719,14.6064 0.05674,14.96622z" fill="#855cd6" stroke="none" stroke-width="0"/></g></g></svg>